<svg xmlns="http://www.w3.org/2000/svg" viewBox="0 0 360.34 311"><defs><style>.cls-1{fill:#5a5a19;}.cls-1,.cls-11,.cls-12{stroke:#000;stroke-miterlimit:10;}.cls-2{fill:#3c4b1e;}.cls-3{fill:#c87c1f;}.cls-4{fill:#4b6723;}.cls-5{fill:#7f831e;}.cls-6{fill:#fad0b7;}.cls-7{fill:#d73513;}.cls-8{fill:#b74d0d;}.cls-9{fill:#9da7bc;}.cls-10{fill:#a82725;}.cls-11{fill:#25371d;}.cls-12{fill:#39572a;}.cls-13{fill:#f3a889;}.cls-14{fill:#e74e21;}.cls-15{fill:#4c5e29;}.cls-16{fill:#c60109;}.cls-17{fill:#f2e5d3;}.cls-18{fill:#2e4b62;}.cls-19{fill:#c54523;}.cls-20{fill:#838cb5;}.cls-21{fill:#aab9bb;}.cls-22{fill:#5b8cc0;}.cls-23{fill:#f0826a;}.cls-24{fill:#ec9102;}.cls-24,.cls-25{stroke:#7c2320;stroke-linecap:round;stroke-linejoin:round;stroke-width:2px;}.cls-25{fill:none;}.cls-26{fill:#f08e0e;}.cls-27{fill:#b33b32;}.cls-28{fill:#a8a69c;}.cls-29{fill:#5f2628;}.cls-30{fill:#535f2c;}.cls-31{fill:#87871d;}.cls-32{fill:#452420;}.cls-33{fill:#d65f61;}.cls-34{fill:#5d2223;}.cls-35{fill:#5769a3;}.cls-36{fill:#461f26;}.cls-37{fill:#2d314c;}.cls-38{fill:#958978;}.cls-39{fill:#792713;}.cls-40{fill:#a8130b;}.cls-41{fill:#a63f22;}</style></defs><title>illustration</title><g id="city"><path class="cls-1" d="M68,245s34.7-64.92,63-73c28-8,39-4,39-4s30,5,50,74Z" transform="translate(-67.16 -106)"/><path class="cls-2" d="M117,158s-6-4-10-2-9,3-9,11,7,18,7,18-2-12,1-15,6.48-4.73,10.24-3.86S120,166,120,166Z" transform="translate(-67.16 -106)"/><path class="cls-3" d="M113.5,236s-6-11-4-21,5-26,5-26l5-21,2,1s-1,21,0,25,9,30,6,38l-2,4Z" transform="translate(-67.16 -106)"/><path class="cls-4" d="M122,168s-2-18,0-22,7-12,7-12,3-5,2-6-13,9-15,12-5,10-4,17,9.18,15,9.18,15Z" transform="translate(-67.16 -106)"/><path class="cls-5" d="M121,173s1-8,6-8,14,6,14,6a3.49,3.49,0,0,0,1-2c0-1,0-14-9-14s-10,3-12,6-1,10-1,10Z" transform="translate(-67.16 -106)"/><polygon class="cls-6" points="92.84 139 53.84 139 53.84 111 69.84 85 92.84 111 92.84 139"/><rect class="cls-7" x="60.84" y="112" width="8" height="12"/><rect class="cls-7" x="74.84" y="112" width="8" height="12"/><polygon class="cls-8" points="124.84 111 92.84 111 69.84 85 101.84 85 124.84 111"/><rect class="cls-9" x="92.84" y="96" width="41" height="43"/><polygon class="cls-10" points="140.84 87 99.84 87 86.84 96 140.84 96 140.84 87"/><path class="cls-11" d="M427,268s-7-129-57-126-51.33,131-51.33,131L427,271Z" transform="translate(-67.16 -106)"/><path class="cls-12" d="M212,273s39.24-107.38,72-110c50-4,74,110,74,110H212" transform="translate(-67.16 -106)"/><rect class="cls-13" x="219.84" y="128" width="44" height="69"/><rect class="cls-14" x="232.84" y="170" width="16" height="27"/><rect class="cls-15" x="236.84" y="175" width="8" height="22"/><rect class="cls-16" x="219.84" y="128" width="14.67" height="26"/><rect class="cls-16" x="249.18" y="128" width="14.67" height="26"/><rect class="cls-17" x="264.84" y="162" width="75" height="49"/><rect class="cls-18" x="264.84" y="162" width="75" height="4"/><path class="cls-19" d="M363,288c-.32-5-5.32-9-11.47-9s-11.15,4-11.47,9h0v29h23V288Z" transform="translate(-67.16 -106)"/><path class="cls-20" d="M360.55,289.53a9.07,9.07,0,0,0-18.1,0h0V317h18.16V289.53Z" transform="translate(-67.16 -106)"/><path class="cls-19" d="M393,288c-.32-5-5.32-9-11.47-9s-11.15,4-11.47,9h0v29h23V288Z" transform="translate(-67.16 -106)"/><path class="cls-20" d="M390.55,289.53a9.07,9.07,0,0,0-18.1,0h0V317h18.16V289.53Z" transform="translate(-67.16 -106)"/><rect class="cls-21" x="30.84" y="129" width="38" height="49"/><rect class="cls-22" x="30.84" y="129" width="38" height="4"/><path class="cls-23" d="M131.28,261.11c-.15-4-2.45-7.11-5.28-7.11s-5.13,3.15-5.28,7.11h0V284h10.58V261.11Z" transform="translate(-67.16 -106)"/><path class="cls-23" d="M113.28,261.11c-.15-4-2.45-7.11-5.28-7.11s-5.13,3.15-5.28,7.11h0V284h10.58V261.11Z" transform="translate(-67.16 -106)"/><path class="cls-24" d="M225,126H209v40s-35,118-37,133-29,71-29,71l48.5,1.5,12-56,11-67L225,195.05Z" transform="translate(-67.16 -106)"/><polyline class="cls-25" points="128.93 104.1 154.89 104.1 134.84 82"/><line class="cls-24" x1="157.84" y1="83.55" x2="130.09" y2="104.1"/><polyline class="cls-24" points="155.84 53 135.29 82.25 157.84 82.25"/><line class="cls-24" x1="141.84" y1="20" x2="156.18" y2="35.5"/><polyline class="cls-25" points="156.18 20 141.84 36.5 156.18 53"/><line class="cls-24" x1="156.84" y1="36.5" x2="141.84" y2="37"/><polyline class="cls-25" points="157.14 82.25 141.84 53 157.84 36.75"/><polygon class="cls-25" points="114.32 155.47 145.21 155.47 122.42 126.7 150.45 126.7 114.32 155.47"/><polyline class="cls-25" points="113.84 155 141.29 179.39 107.91 179.39 145.1 156.18"/><line class="cls-24" x1="141.84" y1="53" x2="156.84" y2="53"/><path class="cls-24" d="M225,126h16v40s35,118,37,133,29,71,29,71l-48.5,1.5-12-56-11-67L225,195.05Z" transform="translate(-67.16 -106)"/><polyline class="cls-25" points="186.75 104.1 160.8 104.1 180.84 82"/><line class="cls-25" x1="157.84" y1="83.55" x2="185.59" y2="104.1"/><polyline class="cls-25" points="159.84 53 180.39 82.25 157.84 82.25"/><line class="cls-25" x1="173.84" y1="20" x2="159.51" y2="35.5"/><polyline class="cls-25" points="159.51 20 173.84 36.5 159.51 53"/><line class="cls-25" x1="158.84" y1="36.5" x2="173.84" y2="37"/><polyline class="cls-25" points="158.54 82.25 173.84 53 157.84 36.75"/><polygon class="cls-25" points="201.36 155.47 170.47 155.47 193.26 126.7 165.24 126.7 201.36 155.47"/><polyline class="cls-25" points="201.84 155 174.4 179.39 207.78 179.39 170.59 156.18"/><line class="cls-25" x1="173.84" y1="53" x2="158.84" y2="53"/><polygon class="cls-24" points="157.84 179 83.84 179 92.84 207 157.84 207 222.84 207 231.84 179 157.84 179"/><polygon class="cls-24" points="132.84 100 108.84 100 117.84 128 132.84 128 197.84 128 206.84 100 132.84 100"/><polygon class="cls-24" points="142.54 1 127.84 1 133.35 21 142.54 21 182.33 21 187.84 1 142.54 1"/></g><g id="person5"><path class="cls-26" d="M108,310l-6,3v17a8.22,8.22,0,0,0-6,7c-1,6-2,30-2,30h25l-3-36,1-16-6-5.56Z" transform="translate(-67.16 -106)"/><circle class="cls-27" cx="42.34" cy="194.5" r="6.5"/><rect class="cls-27" x="38.84" y="197" width="5" height="10"/><circle class="cls-27" cx="41.84" cy="208" r="4"/><path class="cls-27" d="M104,331.5a2.51,2.51,0,0,1-1.21-.31c-3.57-2-7.9-4.95-8.27-7.88s2.94-6.59,5.77-9.25a2.49,2.49,0,1,1,3.42,3.63,22.85,22.85,0,0,0-4.14,5,23.2,23.2,0,0,0,5.64,4.12A2.5,2.5,0,0,1,104,331.5Z" transform="translate(-67.16 -106)"/></g><g id="person4"><polygon class="cls-28" points="64.84 273 24.84 271 51.84 224 53.84 204 59.84 204 64.84 273"/><circle class="cls-29" cx="53.84" cy="209" r="3"/><rect class="cls-29" x="50.84" y="209" width="6" height="11"/><rect class="cls-29" x="51.84" y="217" width="9" height="3"/><rect class="cls-29" x="54.84" y="196" width="4" height="8"/><ellipse class="cls-29" cx="56.84" cy="191.5" rx="6" ry="6.5"/><circle class="cls-30" cx="50.34" cy="178.5" r="5.5"/><circle class="cls-30" cx="61.34" cy="178.5" r="5.5"/><circle class="cls-30" cx="46.37" cy="186.32" r="2.5"/><circle class="cls-30" cx="68.31" cy="184.68" r="2.5"/><rect class="cls-30" x="113" y="289" width="23" height="5" transform="translate(-88.54 -95.91) rotate(-4.28)"/><rect class="cls-30" x="50.84" y="177" width="11" height="8"/></g><g id="person3"><path class="cls-31" d="M152,321.5a6.5,6.5,0,1,1-6.5-6.5A6.49,6.49,0,0,1,152,321.5Z" transform="translate(-67.16 -106)"/><path class="cls-31" d="M152,331.53c1,1.37,0-9.45,0-9.45H139s0,9.45-1,12.19,1,2.73,1,2.73l13-1.37Z" transform="translate(-67.16 -106)"/><ellipse class="cls-31" cx="80.34" cy="239" rx="13.5" ry="16"/><path class="cls-32" d="M143,313v-4h5v5h-3l-2,7-1,5h7a3.7,3.7,0,0,1,3-2c3.5,0,3.5,2.5,3.5,2.5s-1,2-2,2h-5s-4,3-7,3-4-1-4-1-1-11,0-13,4-4,4-4Z" transform="translate(-67.16 -106)"/><ellipse class="cls-32" cx="145.99" cy="303.56" rx="6.01" ry="6.5" transform="translate(-86.16 -96.11) rotate(-3.64)"/><polyline class="cls-32" points="81.46 203.44 85.84 203 84.84 192 80.84 191.46"/><path class="cls-33" d="M142,282c1,0,7,8,7,8s6,0,7,1,0,8-7,9-15,3-15-1,7-5,7-5-1-7,0-10S142,282,142,282Z" transform="translate(-67.16 -106)"/></g><g id="person2"><circle class="cls-34" cx="169.84" cy="285" r="5"/><polygon class="cls-34" points="162.84 282 162.84 290 145.84 290 156.84 281 162.84 282"/><path class="cls-34" d="M228,337a44.32,44.32,0,0,0-6,5l-3,2-9-12s-4.5-.5-5.5.5-2,3-1,4a32.08,32.08,0,0,0,5,3s5,14,8,15,8,0,8,0l10-3,6,2s7,13,9,13,5-2,5-3-8-18-8-18l-2-4-9-8-1-2s3-4,1-6-9-5-11,0,1,8,1,8h2l1,2Z" transform="translate(-67.16 -106)"/><path class="cls-35" d="M247,372a17,17,0,1,1-4.69-11.73A17,17,0,0,1,247,372Z" transform="translate(-67.16 -106)"/><path class="cls-35" d="M225,338c1,0,3,2,3,2l3,3h6l5-5,3,4-5,3,1,15-20.53-2.08S225,354,226,353s1-6,1-6l-1-3-4-4,3-2" transform="translate(-67.16 -106)"/><path class="cls-14" d="M236.17,327.62s.66-3.09-3.17-4.62c-5-2-7.1.61-7.1.61S232,326,233,326,236.17,327.62,236.17,327.62Z" transform="translate(-67.16 -106)"/></g><g id="person1"><polyline class="cls-36" points="258.84 299 253.84 310 262.84 310 262.84 299 258.84 299"/><polyline class="cls-36" points="247.84 299 242.84 310 251.84 310 251.84 299 247.84 299"/><polygon class="cls-36" points="252.84 200 239.84 222 238.84 227 246.84 246 249.51 248 251.84 240 247.84 239 242.84 227 248.84 217 252.84 200"/><path class="cls-37" d="M315.42,329.37l7.92-.16L328,341l4,66H308s5-12,6-17,3-29,3-29l-1-21Z" transform="translate(-67.16 -106)"/><path class="cls-38" d="M318,332c4,0,5-2,5-2l9-21,3-3-7-10h-4l-6,15s-5,13-4,15a47.09,47.09,0,0,1,2,5Z" transform="translate(-67.16 -106)"/><rect class="cls-36" x="256.84" y="171" width="4" height="19"/><ellipse class="cls-36" cx="325.91" cy="275.09" rx="7.91" ry="3.5" transform="translate(-166.22 205.02) rotate(-45)"/><path class="cls-36" d="M333.94,307.06S334,305,335,306s8,17,8,17a24.23,24.23,0,0,1,0,9c-1,4-16.5,45.5-16.5,45.5v13s-3,8-4,8-2-2-2-2l1-2v-6l-2,3a12.69,12.69,0,0,1,1-8l3-6,16-48s-1,0-4-9-2-11-2-11Z" transform="translate(-67.16 -106)"/><rect class="cls-39" x="240.84" y="309" width="11" height="2"/><rect class="cls-39" x="253.84" y="309" width="9" height="2"/><path class="cls-40" d="M325.66,270.74S329,277,330,277s3-4,3-4,2-3-1-4-6,1-6,1Z" transform="translate(-67.16 -106)"/><path class="cls-41" d="M330.93,286.67a3.37,3.37,0,0,1-1.09-.2c-3.29-1.09-.84-9.87-.32-11.61l.36-1.2.57,1.11c.1.22,2.65,5.22,3,7.13.18.87.16,3.13-1.05,4.21A2.23,2.23,0,0,1,330.93,286.67Zm-.8-10.28c-1,3.84-1.55,8.61,0,9.14a1.55,1.55,0,0,0,1.62-.17c.79-.7.89-2.47.73-3.26A36.29,36.29,0,0,0,330.13,276.39Z" transform="translate(-67.16 -106)"/></g></svg>